<svg xmlns="http://www.w3.org/2000/svg" xmlns:v="https://svgstorm.com"
viewBox = "0 0 800 560"
width="800"
height="560">
<g fill="None" fill-opacity="0.0" stroke="#FEDA05" stroke-opacity="1.00" stroke-width="0.3"><path d="
M 0.00 560.00 
L 800.00 560.00
L 800.00 0.00
L 0.00 0.00
L 0.00 560.00
M 448.00 172.00 
C 448.53 169.81 446.86 166.38 449.00 165.00
C 449.28 163.72 448.24 161.50 450.00 161.00
C 452.90 164.43 457.43 166.22 461.00 169.00
C 457.24 175.21 452.28 180.55 449.00 187.00
C 446.76 182.91 448.60 176.84 448.00 172.00
M 565.00 185.00 
C 563.10 177.78 568.27 168.96 570.00 162.00
C 583.69 168.49 569.66 177.48 565.00 185.00
M 706.00 171.00 
C 697.26 175.96 687.38 179.96 678.00 184.00
C 681.62 177.57 687.71 172.21 692.00 166.00
C 696.84 167.10 701.37 169.19 706.00 171.00
M 355.00 186.00 
C 354.36 192.51 353.37 198.94 351.00 205.00
C 347.94 197.69 346.34 189.13 345.00 181.00
C 348.80 181.75 351.35 185.12 355.00 186.00
M 257.00 194.00 
C 260.64 206.41 268.30 217.54 272.00 230.00
C 263.53 223.83 255.90 216.06 247.00 211.00
C 249.84 205.30 252.80 198.76 257.00 194.00
M 156.00 359.00 
C 155.00 327.05 153.00 289.27 157.00 259.00
C 319.51 241.06 481.53 221.15 644.00 203.00
C 644.00 233.67 644.00 264.33 644.00 295.00 C 631.39 313.01 591.61 304.37 568.00 311.00 C 430.77 327.35 293.30 342.84 156.00 359.00
M 130.00 229.00 
C 121.87 226.23 113.25 219.99 108.00 214.00
C 120.33 209.39 126.99 218.36 130.00 229.00
M 672.00 259.00 
C 678.98 257.17 688.43 244.07 693.92 253.08 C 701.97 262.55 677.36 260.19 672.00 259.00
M 133.00 320.00 
C 123.91 323.95 113.68 327.02 104.00 330.00
C 106.09 325.55 106.64 320.68 108.00 316.00
C 116.39 316.76 125.49 317.27 133.00 320.00
M 685.00 347.00 
C 681.12 349.71 676.78 352.81 672.00 354.00
C 670.40 347.10 664.71 341.86 663.00 335.00
C 670.46 338.34 678.45 342.20 685.00 347.00
M 564.00 365.00 
C 559.67 365.00 555.33 365.00 551.00 365.00
C 550.02 358.50 546.86 352.57 546.00 346.00
C 552.79 351.54 557.87 358.80 564.00 365.00
M 460.00 353.00 
C 463.42 361.21 465.11 369.96 469.00 378.00
C 450.67 380.98 455.60 363.46 460.00 353.00
M 354.00 385.00 
C 340.74 381.84 348.14 370.49 351.00 362.00
C 353.30 368.92 353.62 377.24 354.00 385.00
M 254.00 400.00 
C 256.25 404.42 254.39 410.82 255.00 416.00
C 251.03 417.27 246.63 410.58 242.00 410.00
C 244.69 401.67 250.31 394.35 253.00 386.00
C 255.22 389.75 253.41 395.49 254.00 400.00
M 163.00 388.00 
C 159.79 394.84 156.82 402.76 151.00 408.00
C 143.61 398.10 155.22 392.41 163.00 388.00 Z"/>
</g>
<g fill="None" fill-opacity="0.0" stroke="#080502" stroke-opacity="1.00" stroke-width="0.3"><path d="
M 449.00 165.00 
C 448.48 167.19 450.14 170.62 448.00 172.00
C 448.60 176.84 446.76 182.91 449.00 187.00
C 452.28 180.55 457.24 175.21 461.00 169.00
C 457.43 166.22 452.90 164.43 450.00 161.00
C 448.24 161.50 449.28 163.72 449.00 165.00 Z"/>
</g>
<g fill="None" fill-opacity="0.0" stroke="#FCFDF1" stroke-opacity="1.00" stroke-width="0.3"><path d="
M 565.00 185.00 
C 569.66 177.48 583.69 168.49 570.00 162.00
C 568.27 168.96 563.10 177.78 565.00 185.00 Z"/>
</g>
<g fill="None" fill-opacity="0.0" stroke="#5A5200" stroke-opacity="1.00" stroke-width="0.3"><path d="
M 448.00 172.00 
C 450.14 170.62 448.48 167.19 449.00 165.00
C 446.86 166.38 448.53 169.81 448.00 172.00 Z"/>
</g>
<g fill="None" fill-opacity="0.0" stroke="#0D0903" stroke-opacity="1.00" stroke-width="0.3"><path d="
M 706.00 171.00 
C 701.37 169.19 696.84 167.10 692.00 166.00
C 687.71 172.21 681.62 177.57 678.00 184.00
C 687.38 179.96 697.26 175.96 706.00 171.00 Z"/>
</g>
<g fill="None" fill-opacity="0.0" stroke="#FDFDE7" stroke-opacity="1.00" stroke-width="0.3"><path d="
M 355.00 186.00 
C 351.35 185.12 348.80 181.75 345.00 181.00
C 346.34 189.13 347.94 197.69 351.00 205.00
C 353.37 198.94 354.36 192.51 355.00 186.00 Z"/>
</g>
<g fill="None" fill-opacity="0.0" stroke="#0A0603" stroke-opacity="1.00" stroke-width="0.3"><path d="
M 257.00 194.00 
C 252.80 198.76 249.84 205.30 247.00 211.00
C 255.90 216.06 263.53 223.83 272.00 230.00
C 268.30 217.54 260.64 206.41 257.00 194.00 Z"/>
</g>
<g fill="None" fill-opacity="0.0" stroke="#000000" stroke-opacity="1.00" stroke-width="0.3"><path d="
M 157.00 259.00 
C 154.67 291.83 156.66 325.75 156.00 359.00
C 293.30 342.84 430.77 327.35 568.00 311.00 C 591.61 304.37 631.39 313.01 644.00 295.00 C 644.00 264.33 644.00 233.67 644.00 203.00
C 481.53 221.15 319.51 241.06 157.00 259.00
M 598.00 266.00 
C 597.34 272.83 599.32 280.99 597.00 287.00
C 591.98 287.18 587.23 288.61 582.00 288.00
C 587.06 266.05 569.35 251.85 562.00 234.00
C 568.25 234.67 573.73 232.33 580.00 233.00
C 582.58 239.69 586.71 246.44 591.00 252.00
C 593.36 244.34 598.64 237.68 601.00 230.00
C 606.81 229.95 612.16 228.05 618.00 228.00
C 611.44 240.74 603.90 253.07 598.00 266.00
M 570.00 290.00 
C 564.19 290.05 558.84 291.95 553.00 292.00
C 553.08 288.03 549.71 285.08 550.00 281.00
C 543.77 282.03 537.39 282.51 531.00 283.00
C 530.06 294.12 522.27 297.31 512.00 297.00
C 517.11 277.11 524.88 257.93 530.00 238.00
C 562.27 226.75 557.46 271.17 570.00 290.00
M 515.00 240.00 
C 504.15 259.30 513.30 300.77 484.00 300.00
C 481.42 288.33 477.49 276.99 476.00 265.00
C 471.96 276.65 470.06 289.73 467.00 302.00
C 461.60 302.37 456.31 303.18 451.00 304.00
C 446.10 285.73 441.02 267.53 437.00 249.00
C 442.43 248.76 447.77 248.12 453.00 247.00
C 456.04 257.48 457.22 269.09 461.00 279.00
C 466.19 265.59 462.46 239.68 484.00 244.00
C 485.85 254.71 487.80 266.59 492.00 276.00
C 496.06 261.63 493.36 236.60 515.00 240.00
M 421.00 251.00 
C 426.42 269.24 433.73 286.96 440.00 305.00
C 434.60 306.70 428.59 305.96 423.00 307.00
C 422.92 303.09 420.57 299.81 420.00 296.00
C 413.74 296.90 407.48 297.87 401.00 298.00
C 400.73 309.27 392.18 312.66 382.00 312.00
C 393.91 290.70 387.67 247.47 421.00 251.00
M 374.00 278.00 
C 375.57 280.94 375.71 287.13 374.00 290.00
C 365.21 290.46 356.71 292.13 348.00 293.00
C 348.00 296.67 348.00 300.33 348.00 304.00
C 357.99 303.01 367.87 301.54 378.00 301.00
C 376.54 304.79 376.69 308.99 376.00 313.00
C 361.55 314.16 347.24 315.92 333.00 318.00
C 333.00 299.00 333.00 280.00 333.00 261.00
C 347.51 260.41 361.40 257.31 376.00 257.00
C 383.58 280.81 342.98 259.35 348.00 281.00
C 356.74 280.31 365.23 278.65 374.00 278.00
M 327.00 262.00 
C 320.93 281.85 313.49 301.27 307.00 321.00
C 300.36 320.42 294.61 323.34 288.00 323.00
C 282.77 304.69 274.75 287.20 269.00 269.00
C 274.58 268.03 280.30 267.56 286.00 267.00
C 289.22 279.12 293.37 291.63 298.00 303.00
C 302.81 290.53 306.70 276.97 311.00 264.00
C 316.59 264.34 321.52 262.17 327.00 262.00
M 263.00 270.00 
C 263.00 288.67 263.00 307.33 263.00 326.00
C 257.60 326.37 252.31 327.18 247.00 328.00
C 252.38 309.16 233.29 267.05 263.00 270.00
M 198.00 302.00 
C 198.00 304.33 198.00 306.67 198.00 309.00
C 195.54 325.22 222.07 325.98 221.00 310.00
C 217.44 310.62 213.84 311.40 210.00 311.00
C 210.00 307.33 210.00 303.67 210.00 300.00
C 218.62 298.87 227.15 297.31 236.00 297.00
C 236.00 307.67 236.00 318.33 236.00 329.00
C 231.93 328.92 224.24 332.81 224.00 326.00
C 210.86 340.71 181.06 333.91 182.00 312.00
C 180.50 310.36 180.28 305.57 182.00 304.00
C 181.93 288.71 195.81 275.13 211.00 275.00 C 228.48 268.96 247.63 296.41 220.00 292.00
C 215.60 278.74 194.97 289.92 198.00 302.00 Z"/>
</g>
<g fill="None" fill-opacity="0.0" stroke="#FCFCE5" stroke-opacity="1.00" stroke-width="0.3"><path d="
M 130.00 229.00 
C 126.99 218.36 120.33 209.39 108.00 214.00
C 113.25 219.99 121.87 226.23 130.00 229.00 Z"/>
</g>
<g fill="None" fill-opacity="0.0" stroke="#F8F8F8" stroke-opacity="1.00" stroke-width="0.3"><path d="
M 597.00 287.00 
C 597.66 280.17 595.68 272.01 598.00 266.00
C 603.90 253.07 611.44 240.74 618.00 228.00
C 612.16 228.05 606.81 229.95 601.00 230.00
C 598.64 237.68 593.36 244.34 591.00 252.00
C 586.71 246.44 582.58 239.69 580.00 233.00
C 573.73 232.33 568.25 234.67 562.00 234.00
C 569.35 251.85 587.06 266.05 582.00 288.00
C 587.23 288.61 591.98 287.18 597.00 287.00 Z"/>
</g>
<g fill="None" fill-opacity="0.0" stroke="#F8F8F8" stroke-opacity="1.00" stroke-width="0.3"><path d="
M 570.00 290.00 
C 557.46 271.17 562.27 226.75 530.00 238.00
C 524.88 257.93 517.11 277.11 512.00 297.00
C 522.27 297.31 530.06 294.12 531.00 283.00
C 537.39 282.51 543.77 282.03 550.00 281.00
C 549.71 285.08 553.08 288.03 553.00 292.00
C 558.84 291.95 564.19 290.05 570.00 290.00
M 540.00 249.00 
C 541.92 256.03 545.01 262.69 546.00 270.00
C 541.72 269.26 538.20 271.33 534.00 271.00
C 535.55 263.64 537.50 255.75 540.00 249.00 Z"/>
</g>
<g fill="None" fill-opacity="0.0" stroke="#F7F7F7" stroke-opacity="1.00" stroke-width="0.3"><path d="
M 515.00 240.00 
C 493.36 236.60 496.06 261.63 492.00 276.00
C 487.80 266.59 485.85 254.71 484.00 244.00
C 462.46 239.68 466.19 265.59 461.00 279.00
C 457.22 269.09 456.04 257.48 453.00 247.00
C 447.77 248.12 442.43 248.76 437.00 249.00
C 441.02 267.53 446.10 285.73 451.00 304.00
C 456.31 303.18 461.60 302.37 467.00 302.00
C 470.06 289.73 471.96 276.65 476.00 265.00
C 477.49 276.99 481.42 288.33 484.00 300.00
C 513.30 300.77 504.15 259.30 515.00 240.00 Z"/>
</g>
<g fill="None" fill-opacity="0.0" stroke="#030303" stroke-opacity="1.00" stroke-width="0.3"><path d="
M 540.00 249.00 
C 537.50 255.75 535.55 263.64 534.00 271.00
C 538.20 271.33 541.72 269.26 546.00 270.00
C 545.01 262.69 541.92 256.03 540.00 249.00 Z"/>
</g>
<g fill="None" fill-opacity="0.0" stroke="#FDFCE7" stroke-opacity="1.00" stroke-width="0.3"><path d="
M 672.00 259.00 
C 677.36 260.19 701.97 262.55 693.92 253.08 C 688.43 244.07 678.98 257.17 672.00 259.00 Z"/>
</g>
<g fill="None" fill-opacity="0.0" stroke="#F8F8F8" stroke-opacity="1.00" stroke-width="0.3"><path d="
M 421.00 251.00 
C 387.67 247.47 393.91 290.70 382.00 312.00
C 392.18 312.66 400.73 309.27 401.00 298.00
C 407.48 297.87 413.74 296.90 420.00 296.00
C 420.57 299.81 422.92 303.09 423.00 307.00
C 428.59 305.96 434.60 306.70 440.00 305.00
C 433.73 286.96 426.42 269.24 421.00 251.00
M 416.00 285.00 
C 411.85 284.68 408.28 286.73 404.00 286.00
C 405.62 278.66 407.94 270.88 410.00 264.00
C 412.04 270.60 415.08 277.76 416.00 285.00 Z"/>
</g>
<g fill="None" fill-opacity="0.0" stroke="#F8F8F8" stroke-opacity="1.00" stroke-width="0.3"><path d="
M 374.00 290.00 
C 374.00 286.00 374.00 282.00 374.00 278.00
C 365.23 278.65 356.74 280.31 348.00 281.00
C 342.98 259.35 383.58 280.81 376.00 257.00
C 361.40 257.31 347.51 260.41 333.00 261.00
C 333.00 280.00 333.00 299.00 333.00 318.00
C 347.24 315.92 361.55 314.16 376.00 313.00
C 376.69 308.99 376.54 304.79 378.00 301.00
C 367.87 301.54 357.99 303.01 348.00 304.00
C 348.00 300.33 348.00 296.67 348.00 293.00
C 356.71 292.13 365.21 290.46 374.00 290.00 Z"/>
</g>
<g fill="None" fill-opacity="0.0" stroke="#655D00" stroke-opacity="1.00" stroke-width="0.3"><path d="
M 156.00 359.00 
C 156.66 325.75 154.67 291.83 157.00 259.00
C 153.00 289.27 155.00 327.05 156.00 359.00 Z"/>
</g>
<g fill="None" fill-opacity="0.0" stroke="#F8F8F8" stroke-opacity="1.00" stroke-width="0.3"><path d="
M 327.00 262.00 
C 321.52 262.17 316.59 264.34 311.00 264.00
C 306.70 276.97 302.81 290.53 298.00 303.00
C 293.37 291.63 289.22 279.12 286.00 267.00
C 280.30 267.56 274.58 268.03 269.00 269.00
C 274.75 287.20 282.77 304.69 288.00 323.00
C 294.61 323.34 300.36 320.42 307.00 321.00
C 313.49 301.27 320.93 281.85 327.00 262.00 Z"/>
</g>
<g fill="None" fill-opacity="0.0" stroke="#050505" stroke-opacity="1.00" stroke-width="0.3"><path d="
M 416.00 285.00 
C 415.08 277.76 412.04 270.60 410.00 264.00
C 407.94 270.88 405.62 278.66 404.00 286.00
C 408.28 286.73 411.85 284.68 416.00 285.00 Z"/>
</g>
<g fill="None" fill-opacity="0.0" stroke="#787878" stroke-opacity="1.00" stroke-width="0.3"><path d="
M 597.00 287.00 
C 599.32 280.99 597.34 272.83 598.00 266.00
C 595.68 272.01 597.66 280.17 597.00 287.00 Z"/>
</g>
<g fill="None" fill-opacity="0.0" stroke="#F5F5F5" stroke-opacity="1.00" stroke-width="0.3"><path d="
M 263.00 270.00 
C 233.29 267.05 252.38 309.16 247.00 328.00
C 252.31 327.18 257.60 326.37 263.00 326.00
C 263.00 307.33 263.00 288.67 263.00 270.00 Z"/>
</g>
<g fill="None" fill-opacity="0.0" stroke="#F8F8F8" stroke-opacity="1.00" stroke-width="0.3"><path d="
M 182.00 304.00 
C 182.00 306.67 182.00 309.33 182.00 312.00
C 181.06 333.91 210.86 340.71 224.00 326.00
C 224.24 332.81 231.93 328.92 236.00 329.00
C 236.00 318.33 236.00 307.67 236.00 297.00
C 227.15 297.31 218.62 298.87 210.00 300.00
C 210.00 303.67 210.00 307.33 210.00 311.00
C 213.84 311.40 217.44 310.62 221.00 310.00
C 222.07 325.98 195.54 325.22 198.00 309.00
C 196.53 307.67 196.29 303.26 198.00 302.00
C 194.97 289.92 215.60 278.74 220.00 292.00
C 247.63 296.41 228.48 268.96 211.00 275.00 C 195.81 275.13 181.93 288.71 182.00 304.00 Z"/>
</g>
<g fill="None" fill-opacity="0.0" stroke="#919191" stroke-opacity="1.00" stroke-width="0.3"><path d="
M 374.00 290.00 
C 375.71 287.13 375.57 280.94 374.00 278.00
C 374.00 282.00 374.00 286.00 374.00 290.00 Z"/>
</g>
<g fill="None" fill-opacity="0.0" stroke="#909090" stroke-opacity="1.00" stroke-width="0.3"><path d="
M 198.00 309.00 
C 198.00 306.67 198.00 304.33 198.00 302.00
C 196.29 303.26 196.53 307.67 198.00 309.00 Z"/>
</g>
<g fill="None" fill-opacity="0.0" stroke="#868686" stroke-opacity="1.00" stroke-width="0.3"><path d="
M 182.00 312.00 
C 182.00 309.33 182.00 306.67 182.00 304.00
C 180.28 305.57 180.50 310.36 182.00 312.00 Z"/>
</g>
<g fill="None" fill-opacity="0.0" stroke="#0D0802" stroke-opacity="1.00" stroke-width="0.3"><path d="
M 133.00 320.00 
C 125.49 317.27 116.39 316.76 108.00 316.00
C 106.64 320.68 106.09 325.55 104.00 330.00
C 113.68 327.02 123.91 323.95 133.00 320.00 Z"/>
</g>
<g fill="None" fill-opacity="0.0" stroke="#0C0803" stroke-opacity="1.00" stroke-width="0.3"><path d="
M 685.00 347.00 
C 678.45 342.20 670.46 338.34 663.00 335.00
C 664.71 341.86 670.40 347.10 672.00 354.00
C 676.78 352.81 681.12 349.71 685.00 347.00 Z"/>
</g>
<g fill="None" fill-opacity="0.0" stroke="#FCFDE6" stroke-opacity="1.00" stroke-width="0.3"><path d="
M 564.00 365.00 
C 557.87 358.80 552.79 351.54 546.00 346.00
C 546.86 352.57 550.02 358.50 551.00 365.00
C 555.33 365.00 559.67 365.00 564.00 365.00 Z"/>
</g>
<g fill="None" fill-opacity="0.0" stroke="#0E0803" stroke-opacity="1.00" stroke-width="0.3"><path d="
M 460.00 353.00 
C 455.60 363.46 450.67 380.98 469.00 378.00
C 465.11 369.96 463.42 361.21 460.00 353.00 Z"/>
</g>
<g fill="None" fill-opacity="0.0" stroke="#FCFDED" stroke-opacity="1.00" stroke-width="0.3"><path d="
M 354.00 385.00 
C 353.62 377.24 353.30 368.92 351.00 362.00
C 348.14 370.49 340.74 381.84 354.00 385.00 Z"/>
</g>
<g fill="None" fill-opacity="0.0" stroke="#0A0603" stroke-opacity="1.00" stroke-width="0.3"><path d="
M 255.00 416.00 
C 252.75 411.58 254.61 405.18 254.00 400.00
C 253.41 395.49 255.22 389.75 253.00 386.00
C 250.31 394.35 244.69 401.67 242.00 410.00
C 246.63 410.58 251.03 417.27 255.00 416.00 Z"/>
</g>
<g fill="None" fill-opacity="0.0" stroke="#FDFDEE" stroke-opacity="1.00" stroke-width="0.3"><path d="
M 163.00 388.00 
C 155.22 392.41 143.61 398.10 151.00 408.00
C 156.82 402.76 159.79 394.84 163.00 388.00 Z"/>
</g>
<g fill="None" fill-opacity="0.0" stroke="#6C6300" stroke-opacity="1.00" stroke-width="0.3"><path d="
M 255.00 416.00 
C 254.39 410.82 256.25 404.42 254.00 400.00
C 254.61 405.18 252.75 411.58 255.00 416.00 Z"/>
</g>
<g fill="#FEDA05" fill-opacity="1.00" stroke="None">
<path d="
M 0.00 560.00 
L 800.00 560.00
L 800.00 0.00
L 0.00 0.00
L 0.00 560.00
M 448.00 172.00 
C 448.53 169.81 446.86 166.38 449.00 165.00
C 449.28 163.72 448.24 161.50 450.00 161.00
C 452.90 164.43 457.43 166.22 461.00 169.00
C 457.24 175.21 452.28 180.55 449.00 187.00
C 446.76 182.91 448.60 176.84 448.00 172.00
M 565.00 185.00 
C 563.10 177.78 568.27 168.96 570.00 162.00
C 583.69 168.49 569.66 177.48 565.00 185.00
M 706.00 171.00 
C 697.26 175.96 687.38 179.96 678.00 184.00
C 681.62 177.57 687.71 172.21 692.00 166.00
C 696.84 167.10 701.37 169.19 706.00 171.00
M 355.00 186.00 
C 354.36 192.51 353.37 198.94 351.00 205.00
C 347.94 197.69 346.34 189.13 345.00 181.00
C 348.80 181.75 351.35 185.12 355.00 186.00
M 257.00 194.00 
C 260.64 206.41 268.30 217.54 272.00 230.00
C 263.53 223.83 255.90 216.06 247.00 211.00
C 249.84 205.30 252.80 198.76 257.00 194.00
M 156.00 359.00 
C 155.00 327.05 153.00 289.27 157.00 259.00
C 319.51 241.06 481.53 221.15 644.00 203.00
C 644.00 233.67 644.00 264.33 644.00 295.00 C 631.39 313.01 591.61 304.37 568.00 311.00 C 430.77 327.35 293.30 342.84 156.00 359.00
M 130.00 229.00 
C 121.87 226.23 113.25 219.99 108.00 214.00
C 120.33 209.39 126.99 218.36 130.00 229.00
M 672.00 259.00 
C 678.98 257.17 688.43 244.07 693.92 253.08 C 701.97 262.55 677.36 260.19 672.00 259.00
M 133.00 320.00 
C 123.91 323.95 113.68 327.02 104.00 330.00
C 106.09 325.55 106.64 320.68 108.00 316.00
C 116.39 316.76 125.49 317.27 133.00 320.00
M 685.00 347.00 
C 681.12 349.71 676.78 352.81 672.00 354.00
C 670.40 347.10 664.71 341.86 663.00 335.00
C 670.46 338.34 678.45 342.20 685.00 347.00
M 564.00 365.00 
C 559.67 365.00 555.33 365.00 551.00 365.00
C 550.02 358.50 546.86 352.57 546.00 346.00
C 552.79 351.54 557.87 358.80 564.00 365.00
M 460.00 353.00 
C 463.42 361.21 465.11 369.96 469.00 378.00
C 450.67 380.98 455.60 363.46 460.00 353.00
M 354.00 385.00 
C 340.74 381.84 348.14 370.49 351.00 362.00
C 353.30 368.92 353.62 377.24 354.00 385.00
M 254.00 400.00 
C 256.25 404.42 254.39 410.82 255.00 416.00
C 251.03 417.27 246.63 410.58 242.00 410.00
C 244.69 401.67 250.31 394.35 253.00 386.00
C 255.22 389.75 253.41 395.49 254.00 400.00
M 163.00 388.00 
C 159.79 394.84 156.82 402.76 151.00 408.00
C 143.61 398.10 155.22 392.41 163.00 388.00 Z"/>
</g>
<g fill="#080502" fill-opacity="1.00" stroke="None">
<path d="
M 449.00 165.00 
C 448.48 167.19 450.14 170.62 448.00 172.00
C 448.60 176.84 446.76 182.91 449.00 187.00
C 452.28 180.55 457.24 175.21 461.00 169.00
C 457.43 166.22 452.90 164.43 450.00 161.00
C 448.24 161.50 449.28 163.72 449.00 165.00 Z"/>
</g>
<g fill="#FCFDF1" fill-opacity="1.00" stroke="None">
<path d="
M 565.00 185.00 
C 569.66 177.48 583.69 168.49 570.00 162.00
C 568.27 168.96 563.10 177.78 565.00 185.00 Z"/>
</g>
<g fill="#5A5200" fill-opacity="1.00" stroke="None">
<path d="
M 448.00 172.00 
C 450.14 170.62 448.48 167.19 449.00 165.00
C 446.86 166.38 448.53 169.81 448.00 172.00 Z"/>
</g>
<g fill="#0D0903" fill-opacity="1.00" stroke="None">
<path d="
M 706.00 171.00 
C 701.37 169.19 696.84 167.10 692.00 166.00
C 687.71 172.21 681.62 177.57 678.00 184.00
C 687.38 179.96 697.26 175.96 706.00 171.00 Z"/>
</g>
<g fill="#FDFDE7" fill-opacity="1.00" stroke="None">
<path d="
M 355.00 186.00 
C 351.35 185.12 348.80 181.75 345.00 181.00
C 346.34 189.13 347.94 197.69 351.00 205.00
C 353.37 198.94 354.36 192.51 355.00 186.00 Z"/>
</g>
<g fill="#0A0603" fill-opacity="1.00" stroke="None">
<path d="
M 257.00 194.00 
C 252.80 198.76 249.84 205.30 247.00 211.00
C 255.90 216.06 263.53 223.83 272.00 230.00
C 268.30 217.54 260.64 206.41 257.00 194.00 Z"/>
</g>
<g fill="#000000" fill-opacity="1.00" stroke="None">
<path d="
M 157.00 259.00 
C 154.67 291.83 156.66 325.75 156.00 359.00
C 293.30 342.84 430.77 327.35 568.00 311.00 C 591.61 304.37 631.39 313.01 644.00 295.00 C 644.00 264.33 644.00 233.67 644.00 203.00
C 481.53 221.15 319.51 241.06 157.00 259.00
M 598.00 266.00 
C 597.34 272.83 599.32 280.99 597.00 287.00
C 591.98 287.18 587.23 288.61 582.00 288.00
C 587.06 266.05 569.35 251.85 562.00 234.00
C 568.25 234.67 573.73 232.33 580.00 233.00
C 582.58 239.69 586.71 246.44 591.00 252.00
C 593.36 244.34 598.64 237.68 601.00 230.00
C 606.81 229.95 612.16 228.05 618.00 228.00
C 611.44 240.74 603.90 253.07 598.00 266.00
M 570.00 290.00 
C 564.19 290.05 558.84 291.95 553.00 292.00
C 553.08 288.03 549.71 285.08 550.00 281.00
C 543.77 282.03 537.39 282.51 531.00 283.00
C 530.06 294.12 522.27 297.31 512.00 297.00
C 517.11 277.11 524.88 257.93 530.00 238.00
C 562.27 226.75 557.46 271.17 570.00 290.00
M 515.00 240.00 
C 504.15 259.30 513.30 300.77 484.00 300.00
C 481.42 288.33 477.49 276.99 476.00 265.00
C 471.96 276.65 470.06 289.73 467.00 302.00
C 461.60 302.37 456.31 303.18 451.00 304.00
C 446.10 285.73 441.02 267.53 437.00 249.00
C 442.43 248.76 447.77 248.12 453.00 247.00
C 456.04 257.48 457.22 269.09 461.00 279.00
C 466.19 265.59 462.46 239.68 484.00 244.00
C 485.85 254.71 487.80 266.59 492.00 276.00
C 496.06 261.63 493.36 236.60 515.00 240.00
M 421.00 251.00 
C 426.42 269.24 433.73 286.96 440.00 305.00
C 434.60 306.70 428.59 305.96 423.00 307.00
C 422.92 303.09 420.57 299.81 420.00 296.00
C 413.74 296.90 407.48 297.87 401.00 298.00
C 400.73 309.27 392.18 312.66 382.00 312.00
C 393.91 290.70 387.67 247.47 421.00 251.00
M 374.00 278.00 
C 375.57 280.94 375.71 287.13 374.00 290.00
C 365.21 290.46 356.71 292.13 348.00 293.00
C 348.00 296.67 348.00 300.33 348.00 304.00
C 357.99 303.01 367.87 301.54 378.00 301.00
C 376.54 304.79 376.69 308.99 376.00 313.00
C 361.55 314.16 347.24 315.92 333.00 318.00
C 333.00 299.00 333.00 280.00 333.00 261.00
C 347.51 260.41 361.40 257.31 376.00 257.00
C 383.58 280.81 342.98 259.35 348.00 281.00
C 356.74 280.31 365.23 278.65 374.00 278.00
M 327.00 262.00 
C 320.93 281.85 313.49 301.27 307.00 321.00
C 300.36 320.42 294.61 323.34 288.00 323.00
C 282.77 304.69 274.75 287.20 269.00 269.00
C 274.58 268.03 280.30 267.56 286.00 267.00
C 289.22 279.12 293.37 291.63 298.00 303.00
C 302.81 290.53 306.70 276.97 311.00 264.00
C 316.59 264.34 321.52 262.17 327.00 262.00
M 263.00 270.00 
C 263.00 288.67 263.00 307.33 263.00 326.00
C 257.60 326.37 252.31 327.18 247.00 328.00
C 252.38 309.16 233.29 267.05 263.00 270.00
M 198.00 302.00 
C 198.00 304.33 198.00 306.67 198.00 309.00
C 195.54 325.22 222.07 325.98 221.00 310.00
C 217.44 310.62 213.84 311.40 210.00 311.00
C 210.00 307.33 210.00 303.67 210.00 300.00
C 218.62 298.87 227.15 297.31 236.00 297.00
C 236.00 307.67 236.00 318.33 236.00 329.00
C 231.93 328.92 224.24 332.81 224.00 326.00
C 210.86 340.71 181.06 333.91 182.00 312.00
C 180.50 310.36 180.28 305.57 182.00 304.00
C 181.93 288.71 195.81 275.13 211.00 275.00 C 228.48 268.96 247.63 296.41 220.00 292.00
C 215.60 278.74 194.97 289.92 198.00 302.00 Z"/>
</g>
<g fill="#FCFCE5" fill-opacity="1.00" stroke="None">
<path d="
M 130.00 229.00 
C 126.99 218.36 120.33 209.39 108.00 214.00
C 113.25 219.99 121.87 226.23 130.00 229.00 Z"/>
</g>
<g fill="#F8F8F8" fill-opacity="1.00" stroke="None">
<path d="
M 597.00 287.00 
C 597.66 280.17 595.68 272.01 598.00 266.00
C 603.90 253.07 611.44 240.74 618.00 228.00
C 612.16 228.05 606.81 229.95 601.00 230.00
C 598.64 237.68 593.36 244.34 591.00 252.00
C 586.71 246.44 582.58 239.69 580.00 233.00
C 573.73 232.33 568.25 234.67 562.00 234.00
C 569.35 251.85 587.06 266.05 582.00 288.00
C 587.23 288.61 591.98 287.18 597.00 287.00 Z"/>
</g>
<g fill="#F8F8F8" fill-opacity="1.00" stroke="None">
<path d="
M 570.00 290.00 
C 557.46 271.17 562.27 226.75 530.00 238.00
C 524.88 257.93 517.11 277.11 512.00 297.00
C 522.27 297.31 530.06 294.12 531.00 283.00
C 537.39 282.51 543.77 282.03 550.00 281.00
C 549.71 285.08 553.08 288.03 553.00 292.00
C 558.84 291.95 564.19 290.05 570.00 290.00
M 540.00 249.00 
C 541.92 256.03 545.01 262.69 546.00 270.00
C 541.72 269.26 538.20 271.33 534.00 271.00
C 535.55 263.64 537.50 255.75 540.00 249.00 Z"/>
</g>
<g fill="#F7F7F7" fill-opacity="1.00" stroke="None">
<path d="
M 515.00 240.00 
C 493.36 236.60 496.06 261.63 492.00 276.00
C 487.80 266.59 485.85 254.71 484.00 244.00
C 462.46 239.68 466.19 265.59 461.00 279.00
C 457.22 269.09 456.04 257.48 453.00 247.00
C 447.77 248.12 442.43 248.76 437.00 249.00
C 441.02 267.53 446.10 285.73 451.00 304.00
C 456.31 303.18 461.60 302.37 467.00 302.00
C 470.06 289.73 471.96 276.65 476.00 265.00
C 477.49 276.99 481.42 288.33 484.00 300.00
C 513.30 300.77 504.15 259.30 515.00 240.00 Z"/>
</g>
<g fill="#030303" fill-opacity="1.00" stroke="None">
<path d="
M 540.00 249.00 
C 537.50 255.75 535.55 263.64 534.00 271.00
C 538.20 271.33 541.72 269.26 546.00 270.00
C 545.01 262.69 541.92 256.03 540.00 249.00 Z"/>
</g>
<g fill="#FDFCE7" fill-opacity="1.00" stroke="None">
<path d="
M 672.00 259.00 
C 677.36 260.19 701.97 262.55 693.92 253.08 C 688.43 244.07 678.98 257.17 672.00 259.00 Z"/>
</g>
<g fill="#F8F8F8" fill-opacity="1.00" stroke="None">
<path d="
M 421.00 251.00 
C 387.67 247.47 393.91 290.70 382.00 312.00
C 392.18 312.66 400.73 309.27 401.00 298.00
C 407.48 297.87 413.74 296.90 420.00 296.00
C 420.57 299.81 422.92 303.09 423.00 307.00
C 428.59 305.96 434.60 306.70 440.00 305.00
C 433.73 286.96 426.42 269.24 421.00 251.00
M 416.00 285.00 
C 411.85 284.68 408.28 286.73 404.00 286.00
C 405.62 278.66 407.94 270.88 410.00 264.00
C 412.04 270.60 415.08 277.76 416.00 285.00 Z"/>
</g>
<g fill="#F8F8F8" fill-opacity="1.00" stroke="None">
<path d="
M 374.00 290.00 
C 374.00 286.00 374.00 282.00 374.00 278.00
C 365.23 278.65 356.74 280.31 348.00 281.00
C 342.98 259.35 383.58 280.81 376.00 257.00
C 361.40 257.31 347.51 260.41 333.00 261.00
C 333.00 280.00 333.00 299.00 333.00 318.00
C 347.24 315.92 361.55 314.16 376.00 313.00
C 376.69 308.99 376.54 304.79 378.00 301.00
C 367.87 301.54 357.99 303.01 348.00 304.00
C 348.00 300.33 348.00 296.67 348.00 293.00
C 356.71 292.13 365.21 290.46 374.00 290.00 Z"/>
</g>
<g fill="#655D00" fill-opacity="1.00" stroke="None">
<path d="
M 156.00 359.00 
C 156.66 325.75 154.67 291.83 157.00 259.00
C 153.00 289.27 155.00 327.05 156.00 359.00 Z"/>
</g>
<g fill="#F8F8F8" fill-opacity="1.00" stroke="None">
<path d="
M 327.00 262.00 
C 321.52 262.17 316.59 264.34 311.00 264.00
C 306.70 276.97 302.81 290.53 298.00 303.00
C 293.37 291.63 289.22 279.12 286.00 267.00
C 280.30 267.56 274.58 268.03 269.00 269.00
C 274.75 287.20 282.77 304.69 288.00 323.00
C 294.61 323.34 300.36 320.42 307.00 321.00
C 313.49 301.27 320.93 281.85 327.00 262.00 Z"/>
</g>
<g fill="#050505" fill-opacity="1.00" stroke="None">
<path d="
M 416.00 285.00 
C 415.08 277.76 412.04 270.60 410.00 264.00
C 407.94 270.88 405.62 278.66 404.00 286.00
C 408.28 286.73 411.85 284.68 416.00 285.00 Z"/>
</g>
<g fill="#787878" fill-opacity="1.00" stroke="None">
<path d="
M 597.00 287.00 
C 599.32 280.99 597.34 272.83 598.00 266.00
C 595.68 272.01 597.66 280.17 597.00 287.00 Z"/>
</g>
<g fill="#F5F5F5" fill-opacity="1.00" stroke="None">
<path d="
M 263.00 270.00 
C 233.29 267.05 252.38 309.16 247.00 328.00
C 252.31 327.18 257.60 326.37 263.00 326.00
C 263.00 307.33 263.00 288.67 263.00 270.00 Z"/>
</g>
<g fill="#F8F8F8" fill-opacity="1.00" stroke="None">
<path d="
M 182.00 304.00 
C 182.00 306.67 182.00 309.33 182.00 312.00
C 181.06 333.91 210.86 340.71 224.00 326.00
C 224.24 332.81 231.93 328.92 236.00 329.00
C 236.00 318.33 236.00 307.67 236.00 297.00
C 227.15 297.31 218.62 298.87 210.00 300.00
C 210.00 303.67 210.00 307.33 210.00 311.00
C 213.84 311.40 217.44 310.62 221.00 310.00
C 222.07 325.98 195.54 325.22 198.00 309.00
C 196.53 307.67 196.29 303.26 198.00 302.00
C 194.97 289.92 215.60 278.74 220.00 292.00
C 247.63 296.41 228.48 268.96 211.00 275.00 C 195.81 275.13 181.93 288.71 182.00 304.00 Z"/>
</g>
<g fill="#919191" fill-opacity="1.00" stroke="None">
<path d="
M 374.00 290.00 
C 375.71 287.13 375.57 280.94 374.00 278.00
C 374.00 282.00 374.00 286.00 374.00 290.00 Z"/>
</g>
<g fill="#909090" fill-opacity="1.00" stroke="None">
<path d="
M 198.00 309.00 
C 198.00 306.67 198.00 304.33 198.00 302.00
C 196.29 303.26 196.53 307.67 198.00 309.00 Z"/>
</g>
<g fill="#868686" fill-opacity="1.00" stroke="None">
<path d="
M 182.00 312.00 
C 182.00 309.33 182.00 306.67 182.00 304.00
C 180.28 305.57 180.50 310.36 182.00 312.00 Z"/>
</g>
<g fill="#0D0802" fill-opacity="1.00" stroke="None">
<path d="
M 133.00 320.00 
C 125.49 317.27 116.39 316.76 108.00 316.00
C 106.64 320.68 106.09 325.55 104.00 330.00
C 113.68 327.02 123.91 323.95 133.00 320.00 Z"/>
</g>
<g fill="#0C0803" fill-opacity="1.00" stroke="None">
<path d="
M 685.00 347.00 
C 678.45 342.20 670.46 338.34 663.00 335.00
C 664.71 341.86 670.40 347.10 672.00 354.00
C 676.78 352.81 681.12 349.71 685.00 347.00 Z"/>
</g>
<g fill="#FCFDE6" fill-opacity="1.00" stroke="None">
<path d="
M 564.00 365.00 
C 557.87 358.80 552.79 351.54 546.00 346.00
C 546.86 352.57 550.02 358.50 551.00 365.00
C 555.33 365.00 559.67 365.00 564.00 365.00 Z"/>
</g>
<g fill="#0E0803" fill-opacity="1.00" stroke="None">
<path d="
M 460.00 353.00 
C 455.60 363.46 450.67 380.98 469.00 378.00
C 465.11 369.96 463.42 361.21 460.00 353.00 Z"/>
</g>
<g fill="#FCFDED" fill-opacity="1.00" stroke="None">
<path d="
M 354.00 385.00 
C 353.62 377.24 353.30 368.92 351.00 362.00
C 348.14 370.49 340.74 381.84 354.00 385.00 Z"/>
</g>
<g fill="#0A0603" fill-opacity="1.00" stroke="None">
<path d="
M 255.00 416.00 
C 252.75 411.58 254.61 405.18 254.00 400.00
C 253.41 395.49 255.22 389.75 253.00 386.00
C 250.31 394.35 244.69 401.67 242.00 410.00
C 246.63 410.58 251.03 417.27 255.00 416.00 Z"/>
</g>
<g fill="#FDFDEE" fill-opacity="1.00" stroke="None">
<path d="
M 163.00 388.00 
C 155.22 392.41 143.61 398.10 151.00 408.00
C 156.82 402.76 159.79 394.84 163.00 388.00 Z"/>
</g>
<g fill="#6C6300" fill-opacity="1.00" stroke="None">
<path d="
M 255.00 416.00 
C 254.39 410.82 256.25 404.42 254.00 400.00
C 254.61 405.18 252.75 411.58 255.00 416.00 Z"/>
</g>
</svg>