<svg width="86" height="86" viewBox="0 0 86 86" fill="none" xmlns="http://www.w3.org/2000/svg">
<g opacity="0.3">
<path d="M61.25 33.75C61.25 33.75 67.625 25.775 70.1875 18.75C70.8302 17.1579 71.1898 15.4658 71.25 13.75C71.25 11.0978 70.1964 8.5543 68.3211 6.67893C66.4457 4.80357 63.9022 3.75 61.25 3.75C58.5978 3.75 56.0543 4.80357 54.1789 6.67893C52.3036 8.5543 51.25 11.0978 51.25 13.75C51.3102 15.4658 51.6698 17.1579 52.3125 18.75C54.875 25.775 61.25 33.75 61.25 33.75ZM61.25 8.75C62.2389 8.75 63.2056 9.04324 64.0279 9.59265C64.8501 10.1421 65.491 10.923 65.8694 11.8366C66.2478 12.7502 66.3469 13.7555 66.1539 14.7255C65.961 15.6954 65.4848 16.5863 64.7855 17.2855C64.0863 17.9848 63.1954 18.461 62.2255 18.6539C61.2555 18.8469 60.2502 18.7478 59.3366 18.3694C58.423 17.991 57.6421 17.3501 57.0927 16.5279C56.5432 15.7056 56.25 14.7389 56.25 13.75C56.25 12.4239 56.7768 11.1521 57.7145 10.2145C58.6521 9.27678 59.9239 8.75 61.25 8.75Z" fill="white"/>
<path d="M45 42.5H57.5V52.5H45V42.5Z" fill="#81BFFF"/>
<path d="M11.25 61.25C13.2391 61.25 15.1468 62.0402 16.5533 63.4467C17.9598 64.8532 18.75 66.7609 18.75 68.75V18.75C18.75 16.7609 17.9598 14.8532 16.5533 13.4467C15.1468 12.0402 13.2391 11.25 11.25 11.25C9.26088 11.25 7.35322 12.0402 5.9467 13.4467C4.54018 14.8532 3.75 16.7609 3.75 18.75V68.75C3.75 66.7609 4.54018 64.8532 5.9467 63.4467C7.35322 62.0402 9.26088 61.25 11.25 61.25Z" fill="white"/>
<path d="M76.25 17.5H71.8925C72.2636 16.2832 72.4679 15.0217 72.5 13.75C72.5 10.7663 71.3147 7.90483 69.205 5.79505C67.0952 3.68526 64.2337 2.5 61.25 2.5C58.2663 2.5 55.4048 3.68526 53.295 5.79505C51.1853 7.90483 50 10.7663 50 13.75C50.0321 15.0217 50.2364 16.2832 50.6075 17.5H19.9C19.5687 15.3246 18.4299 13.3539 16.7106 11.9806C14.9912 10.6073 12.8176 9.93221 10.6228 10.0899C8.42794 10.2476 6.37311 11.2264 4.86772 12.8314C3.36234 14.4363 2.51695 16.5496 2.5 18.75V68.75C2.50265 71.0698 3.42537 73.2939 5.06574 74.9343C6.70611 76.5746 8.93017 77.4974 11.25 77.5H76.25C76.5815 77.5 76.8995 77.3683 77.1339 77.1339C77.3683 76.8995 77.5 76.5815 77.5 76.25V18.75C77.5 18.4185 77.3683 18.1005 77.1339 17.8661C76.8995 17.6317 76.5815 17.5 76.25 17.5ZM61.25 5C63.5698 5.00265 65.7939 5.92537 67.4343 7.56574C69.0746 9.20611 69.9974 11.4302 70 13.75C70 19.3837 63.7163 28.375 61.25 31.6913C58.7825 28.375 52.5 19.3888 52.5 13.75C52.5026 11.4302 53.4254 9.20611 55.0657 7.56574C56.7061 5.92537 58.9302 5.00265 61.25 5ZM5 18.75C5 17.0924 5.65848 15.5027 6.83058 14.3306C8.00269 13.1585 9.5924 12.5 11.25 12.5C12.9076 12.5 14.4973 13.1585 15.6694 14.3306C16.8415 15.5027 17.5 17.0924 17.5 18.75V62.625C16.6862 61.7915 15.7138 61.1294 14.6402 60.6775C13.5665 60.2256 12.4133 59.9932 11.2484 59.9939C10.0835 59.9946 8.93059 60.2284 7.85748 60.6815C6.78436 61.1347 5.81279 61.7981 5 62.6325V18.75ZM75 75H11.25C10.0139 75 8.80549 74.6334 7.77769 73.9467C6.74988 73.2599 5.9488 72.2838 5.47575 71.1418C5.00271 69.9997 4.87893 68.7431 5.12009 67.5307C5.36125 66.3183 5.9565 65.2047 6.83058 64.3306C7.70466 63.4565 8.8183 62.8612 10.0307 62.6201C11.2431 62.3789 12.4997 62.5027 13.6418 62.9758C14.7838 63.4488 15.7599 64.2499 16.4467 65.2777C17.1334 66.3055 17.5 67.5139 17.5 68.75C17.5 69.0815 17.6317 69.3995 17.8661 69.6339C18.1005 69.8683 18.4185 70 18.75 70C19.0815 70 19.3995 69.8683 19.6339 69.6339C19.8683 69.3995 20 69.0815 20 68.75V20H51.4587C53.7816 25.1914 56.7428 30.0728 60.2738 34.5312C60.3909 34.6777 60.5394 34.7959 60.7084 34.8772C60.8774 34.9584 61.0625 35.0006 61.25 35.0006C61.4375 35.0006 61.6226 34.9584 61.7916 34.8772C61.9606 34.7959 62.1091 34.6777 62.2262 34.5312C65.7572 30.0728 68.7184 25.1914 71.0413 20H75V75Z" fill="#E21A1A"/>
<path d="M67.5 13.75C67.5 12.5139 67.1334 11.3055 66.4467 10.2777C65.7599 9.24988 64.7838 8.4488 63.6418 7.97576C62.4997 7.50271 61.2431 7.37894 60.0307 7.62009C58.8183 7.86125 57.7047 8.45651 56.8306 9.33059C55.9565 10.2047 55.3613 11.3183 55.1201 12.5307C54.8789 13.7431 55.0027 14.9997 55.4758 16.1418C55.9488 17.2838 56.7499 18.2599 57.7777 18.9467C58.8055 19.6334 60.0139 20 61.25 20C62.907 19.998 64.4956 19.3389 65.6672 18.1672C66.8389 16.9956 67.498 15.407 67.5 13.75ZM57.5 13.75C57.5 13.0083 57.7199 12.2833 58.132 11.6666C58.544 11.0499 59.1297 10.5693 59.8149 10.2855C60.5002 10.0016 61.2542 9.92736 61.9816 10.0721C62.709 10.2168 63.3772 10.5739 63.9017 11.0984C64.4261 11.6228 64.7833 12.291 64.9279 13.0184C65.0726 13.7458 64.9984 14.4998 64.7145 15.1851C64.4307 15.8703 63.9501 16.456 63.3334 16.868C62.7167 17.2801 61.9917 17.5 61.25 17.5C60.2554 17.5 59.3016 17.1049 58.5984 16.4017C57.8951 15.6984 57.5 14.7446 57.5 13.75Z" fill="#E21A1A"/>
<path d="M38.75 35V25H36.25V33.75H25V36.25H37.5C37.8315 36.25 38.1495 36.1183 38.3839 35.8839C38.6183 35.6495 38.75 35.3315 38.75 35Z" fill="#E21A1A"/>
<path d="M45 36.25H56.25V33.75H46.25V25H43.75V35C43.75 35.3315 43.8817 35.6495 44.1161 35.8839C44.3505 36.1183 44.6685 36.25 45 36.25Z" fill="#E21A1A"/>
<path d="M57.5 41.25H45C44.6685 41.25 44.3505 41.3817 44.1161 41.6161C43.8817 41.8505 43.75 42.1685 43.75 42.5V52.5C43.75 52.8315 43.8817 53.1495 44.1161 53.3839C44.3505 53.6183 44.6685 53.75 45 53.75H57.5C57.8315 53.75 58.1495 53.6183 58.3839 53.3839C58.6183 53.1495 58.75 52.8315 58.75 52.5V42.5C58.75 42.1685 58.6183 41.8505 58.3839 41.6161C58.1495 41.3817 57.8315 41.25 57.5 41.25ZM56.25 51.25H46.25V43.75H56.25V51.25Z" fill="#E21A1A"/>
<path d="M38.75 52.5V42.5C38.75 42.1685 38.6183 41.8505 38.3839 41.6161C38.1495 41.3817 37.8315 41.25 37.5 41.25H25V43.75H36.25V51.25H25V53.75H37.5C37.8315 53.75 38.1495 53.6183 38.3839 53.3839C38.6183 53.1495 38.75 52.8315 38.75 52.5Z" fill="#E21A1A"/>
<path d="M57.5 61.25H25V63.75H56.25V70H58.75V62.5C58.75 62.1685 58.6183 61.8505 58.3839 61.6161C58.1495 61.3817 57.8315 61.25 57.5 61.25Z" fill="#E21A1A"/>
<path d="M63.75 42.5V52.5C63.75 52.8315 63.8817 53.1495 64.1161 53.3839C64.3505 53.6183 64.6685 53.75 65 53.75H70V51.25H66.25V43.75H70V41.25H65C64.6685 41.25 64.3505 41.3817 64.1161 41.6161C63.8817 41.8505 63.75 42.1685 63.75 42.5Z" fill="#E21A1A"/>
<path d="M63.75 62.5V70H66.25V63.75H70V61.25H65C64.6685 61.25 64.3505 61.3817 64.1161 61.6161C63.8817 61.8505 63.75 62.1685 63.75 62.5Z" fill="#E21A1A"/>
</g>
</svg>
